<svg width="127" height="32" viewBox="0 0 127 32" fill="none" xmlns="http://www.w3.org/2000/svg">
<ellipse cx="30" cy="16" rx="30" ry="16" fill="#C4C4C4" fill-opacity="0.14"/>
<path d="M6.69141 6.9375L10.5 18.8086L14.2969 6.9375H19.7109V24H15.5859V20.0156L15.9844 11.8594L11.8594 24H9.14062L5.00391 11.8477L5.40234 20.0156V24H1.28906V6.9375H6.69141ZM25.0092 20.8359H32.1694V24H20.8959V6.9375H25.0092V20.8359Z" fill="black"/>
<path d="M47.665 9.20312L51.8486 19.6445L56.0322 9.20312H58.2207V22H56.5332V17.0166L56.6914 11.6377L52.4902 22H51.1982L47.0059 11.6641L47.1729 17.0166V22H45.4854V9.20312H47.665ZM60.5146 17.1572C60.5146 16.2256 60.6963 15.3877 61.0596 14.6436C61.4287 13.8994 61.9385 13.3252 62.5889 12.9209C63.2451 12.5166 63.9922 12.3145 64.8301 12.3145C66.125 12.3145 67.1709 12.7627 67.9678 13.6592C68.7705 14.5557 69.1719 15.748 69.1719 17.2363V17.3506C69.1719 18.2764 68.9932 19.1084 68.6357 19.8467C68.2842 20.5791 67.7773 21.1504 67.1152 21.5605C66.459 21.9707 65.7031 22.1758 64.8477 22.1758C63.5586 22.1758 62.5127 21.7275 61.71 20.8311C60.9131 19.9346 60.5146 18.748 60.5146 17.2715V17.1572ZM62.1494 17.3506C62.1494 18.4053 62.3926 19.252 62.8789 19.8906C63.3711 20.5293 64.0273 20.8486 64.8477 20.8486C65.6738 20.8486 66.3301 20.5264 66.8164 19.8818C67.3027 19.2314 67.5459 18.3232 67.5459 17.1572C67.5459 16.1143 67.2969 15.2705 66.7988 14.626C66.3066 13.9756 65.6504 13.6504 64.8301 13.6504C64.0273 13.6504 63.3799 13.9697 62.8877 14.6084C62.3955 15.2471 62.1494 16.1611 62.1494 17.3506ZM74.208 19.7939L76.5635 12.4902H78.2246L74.8145 22H73.5752L70.1299 12.4902H71.791L74.208 19.7939ZM81.5557 22H79.9297V12.4902H81.5557V22ZM79.7979 9.96777C79.7979 9.7041 79.877 9.48145 80.0352 9.2998C80.1992 9.11816 80.4395 9.02734 80.7559 9.02734C81.0723 9.02734 81.3125 9.11816 81.4766 9.2998C81.6406 9.48145 81.7227 9.7041 81.7227 9.96777C81.7227 10.2314 81.6406 10.4512 81.4766 10.627C81.3125 10.8027 81.0723 10.8906 80.7559 10.8906C80.4395 10.8906 80.1992 10.8027 80.0352 10.627C79.877 10.4512 79.7979 10.2314 79.7979 9.96777ZM88.1123 22.1758C86.8232 22.1758 85.7744 21.7539 84.9658 20.9102C84.1572 20.0605 83.7529 18.9268 83.7529 17.5088V17.21C83.7529 16.2666 83.9316 15.4258 84.2891 14.6875C84.6523 13.9434 85.1562 13.3633 85.8008 12.9473C86.4512 12.5254 87.1543 12.3145 87.9102 12.3145C89.1465 12.3145 90.1074 12.7217 90.793 13.5361C91.4785 14.3506 91.8213 15.5166 91.8213 17.0342V17.7109H85.3789C85.4023 18.6484 85.6748 19.4072 86.1963 19.9873C86.7236 20.5615 87.3916 20.8486 88.2002 20.8486C88.7744 20.8486 89.2607 20.7314 89.6592 20.4971C90.0576 20.2627 90.4062 19.9521 90.7051 19.5654L91.6982 20.3389C90.9014 21.5635 89.7061 22.1758 88.1123 22.1758ZM87.9102 13.6504C87.2539 13.6504 86.7031 13.8906 86.2578 14.3711C85.8125 14.8457 85.5371 15.5137 85.4316 16.375H90.1953V16.252C90.1484 15.4258 89.9258 14.7871 89.5273 14.3359C89.1289 13.8789 88.5898 13.6504 87.9102 13.6504ZM100.127 20.6201H106.191V22H98.4307V9.20312H100.127V20.6201ZM109.628 22H108.002V12.4902H109.628V22ZM107.87 9.96777C107.87 9.7041 107.949 9.48145 108.107 9.2998C108.271 9.11816 108.512 9.02734 108.828 9.02734C109.145 9.02734 109.385 9.11816 109.549 9.2998C109.713 9.48145 109.795 9.7041 109.795 9.96777C109.795 10.2314 109.713 10.4512 109.549 10.627C109.385 10.8027 109.145 10.8906 108.828 10.8906C108.512 10.8906 108.271 10.8027 108.107 10.627C107.949 10.4512 107.87 10.2314 107.87 9.96777ZM113.038 22V13.7471H111.535V12.4902H113.038V11.5146C113.038 10.4951 113.311 9.70703 113.855 9.15039C114.4 8.59375 115.171 8.31543 116.167 8.31543C116.542 8.31543 116.914 8.36523 117.283 8.46484L117.195 9.7832C116.92 9.73047 116.627 9.7041 116.316 9.7041C115.789 9.7041 115.382 9.85938 115.095 10.1699C114.808 10.4746 114.664 10.9141 114.664 11.4883V12.4902H116.694V13.7471H114.664V22H113.038ZM122.231 22.1758C120.942 22.1758 119.894 21.7539 119.085 20.9102C118.276 20.0605 117.872 18.9268 117.872 17.5088V17.21C117.872 16.2666 118.051 15.4258 118.408 14.6875C118.771 13.9434 119.275 13.3633 119.92 12.9473C120.57 12.5254 121.273 12.3145 122.029 12.3145C123.266 12.3145 124.227 12.7217 124.912 13.5361C125.598 14.3506 125.94 15.5166 125.94 17.0342V17.7109H119.498C119.521 18.6484 119.794 19.4072 120.315 19.9873C120.843 20.5615 121.511 20.8486 122.319 20.8486C122.894 20.8486 123.38 20.7314 123.778 20.4971C124.177 20.2627 124.525 19.9521 124.824 19.5654L125.817 20.3389C125.021 21.5635 123.825 22.1758 122.231 22.1758ZM122.029 13.6504C121.373 13.6504 120.822 13.8906 120.377 14.3711C119.932 14.8457 119.656 15.5137 119.551 16.375H124.314V16.252C124.268 15.4258 124.045 14.7871 123.646 14.3359C123.248 13.8789 122.709 13.6504 122.029 13.6504Z" fill="#87898E"/>
</svg>
